<svg width="212" height="212" viewBox="0 0 212 212" fill="none" xmlns="http://www.w3.org/2000/svg">
<circle cx="106" cy="106" r="72" fill="#E5E5E5"/>
<circle cx="106" cy="106" r="76.5" transform="rotate(-30 106 106)" stroke="#E5E5E5" stroke-dasharray="100 100"/>
<path d="M148.691 46H62.7178V155.77H148.691V46Z" fill="#006938"/>
<path d="M159.438 51.7572C157.007 48.1749 152.913 46 148.563 46V93.2086L157.903 105.619L179.908 82.334L159.438 51.7572Z" fill="#006938"/>
<path d="M185.281 90.2607L179.907 82.3286L158.03 105.613L163.659 113.033L185.281 90.2607Z" fill="#F79D55"/>
<path d="M51.8429 51.7572C54.2737 48.1749 58.3677 46 62.7175 46V93.2086L53.3782 105.619L31.373 82.334L51.8429 51.7572Z" fill="#006938"/>
<path d="M26 90.2607L31.3733 82.3286L53.2505 105.613L47.6213 113.033L26 90.2607Z" fill="#F79D55"/>
<path d="M122.464 46C118.626 53.0365 111.718 62.3759 105.705 62.3759C99.6917 62.3759 92.7831 53.0365 88.945 46H77.4307C78.838 49.1984 89.8405 72.6108 105.705 72.6108C121.569 72.6108 132.443 49.1984 133.851 46H122.464Z" fill="#F79D55"/>
<path d="M148.691 155.766H62.7178V166.001H148.691V155.766Z" fill="#F79D55"/>
<path d="M138.329 131.069H110.183V85.9072H138.201V131.069H138.329ZM119.778 121.474H128.733V95.5025H119.778V121.474Z" fill="white"/>
<path d="M101.099 131.069H73.0811V116.101L91.5039 102.412V95.503H82.5484V100.876H73.0811V85.9077H101.099V107.145L82.5484 120.834V121.474H101.099V131.069Z" fill="white"/>
<g clip-path="url(#clip0_913_29520)">
<path d="M153.661 180.469C163.866 176.242 168.712 164.543 164.485 154.337C160.258 144.132 148.558 139.286 138.353 143.513C128.148 147.741 123.302 159.44 127.529 169.645C131.756 179.851 143.456 184.697 153.661 180.469Z" fill="#FEF7E0"/>
<path fill-rule="evenodd" clip-rule="evenodd" d="M134.333 150.306C127.885 156.754 127.885 167.207 134.333 173.655C140.781 180.103 151.235 180.103 157.683 173.655C164.13 167.207 164.13 156.754 157.683 150.306C151.235 143.858 140.781 143.858 134.333 150.306ZM132.919 175.069C125.69 167.841 125.69 156.12 132.919 148.892C140.148 141.663 151.868 141.663 159.097 148.892C166.326 156.12 166.326 167.841 159.097 175.069C151.868 182.298 140.148 182.298 132.919 175.069Z" fill="#FAC79E"/>
<path fill-rule="evenodd" clip-rule="evenodd" d="M157.606 156.323L143.182 171.034L135.268 163.119L138.193 160.193L143.154 165.154L154.652 153.427L157.606 156.323Z" fill="#F47E20"/>
</g>
<defs>
<clipPath id="clip0_913_29520">
<rect width="40" height="40" fill="white" transform="translate(126 142)"/>
</clipPath>
</defs>
</svg>
