<svg width="120" height="120" viewBox="0 0 120 120" fill="none" xmlns="http://www.w3.org/2000/svg">
<circle cx="60" cy="60" r="56" fill="#E5E5E5"/>
<circle cx="60" cy="60" r="59.5" stroke="#E5E5E5" stroke-dasharray="100 100"/>
<mask id="mask0_913_24558" style="mask-type:alpha" maskUnits="userSpaceOnUse" x="5" y="4" width="112" height="112">
<circle cx="61" cy="60" r="56" fill="#E5E5E5"/>
</mask>
<g mask="url(#mask0_913_24558)">
<path d="M50.5676 75.3134C63.0739 77.8202 75.2443 69.7141 77.7511 57.2078C80.2579 44.7016 72.1517 32.5312 59.6455 30.0244C47.1393 27.5176 34.9688 35.6238 32.4621 48.13C29.9553 60.6362 38.0614 72.8067 50.5676 75.3134Z" fill="#FEF7E0"/>
<path d="M108.607 110.822L98.5053 118.636L71.5509 84.2381L81.6277 76.3866L108.607 110.822Z" fill="#F79D55"/>
<path d="M71.1282 69.6596L67.5972 72.4036L74.8099 81.6853L78.341 78.9413L71.1282 69.6596Z" fill="#006938"/>
<path d="M72.4066 74.9319C60.0175 84.5679 42.1268 82.3175 32.4909 69.9284C22.8549 57.5392 25.1053 39.6485 37.4944 30.0126C49.8836 20.3767 67.7743 22.627 77.4102 35.0162C87.0461 47.4054 84.7895 65.3274 72.4066 74.9319ZM41.896 35.6839C32.6339 42.8842 30.9619 56.2647 38.1622 65.5268C45.3625 74.7889 58.7429 76.461 68.005 69.2606C77.2671 62.0603 78.9392 48.6799 71.7389 39.4178C64.5699 30.1619 51.1581 28.4836 41.896 35.6839Z" fill="#F47E20"/>
</g>
</svg>
