<svg width="28" height="22" viewBox="0 0 28 22" fill="none" xmlns="http://www.w3.org/2000/svg">
<path fill-rule="evenodd" clip-rule="evenodd" d="M0 20C0 21.1046 0.895431 22 2 22H26C27.1046 22 28 21.1046 28 20V5C28 3.89543 27.1046 3 26 3H20L18.5937 0.890599C18.2228 0.334202 17.5983 0 16.9296 0H11.0704C10.4017 0 9.7772 0.334202 9.40627 0.8906L8 3H2C0.895431 3 0 3.89543 0 5V20ZM14 18C17.3137 18 20 15.3137 20 12C20 8.68629 17.3137 6 14 6C10.6863 6 8 8.68629 8 12C8 15.3137 10.6863 18 14 18Z" fill="#1A1A1A"/>
</svg>
